<?xml version="1.0" encoding="utf-8"?>
<!-- Generator: Adobe Illustrator 19.0.0, SVG Export Plug-In . SVG Version: 6.00 Build 0)  -->
<svg version="1.1" id="Capa_1" xmlns="http://www.w3.org/2000/svg" xmlns:xlink="http://www.w3.org/1999/xlink" x="0px" y="0px"
	 viewBox="0 0 112 103" style="enable-background:new 0 0 112 103;" xml:space="preserve">
<style type="text/css">
	.st0{fill:#FFFFFF;}
</style>
<g id="XMLID_2_">
	<path id="XMLID_7_" class="st0" d="M90.7,45.7v-2.4c0-6.5-1.9-12.6-5.3-17.7c-5.8-8.9-15.9-14.8-27.3-14.8h-6.4
		c-17.9,0-32.5,14.6-32.5,32.5v2.5C14,46.6,10,51.1,10,56.5c0,6,4.9,10.9,10.9,10.9s10.9-4.9,10.9-10.9c0-5.6-4.2-10.1-9.6-10.8
		v-2.5c0-16.3,13.3-29.5,29.5-29.5h6.4c10.2,0,19.2,5.2,24.5,13c3.2,4.7,5.1,10.4,5.1,16.5v2.5c-5.1,0.9-9,5.3-9,10.7
		c0,4.6,2.9,8.5,6.9,10.1c-4.2,8.7-12.5,15.1-22.2,16.6c-0.6-3.5-3.6-6.2-7.3-6.2c-4.1,0-7.4,3.3-7.4,7.4s3.3,7.4,7.4,7.4
		c3.4,0,6.3-2.3,7.1-5.5c11.2-1.5,20.8-8.8,25.3-18.9c0.3,0,0.7,0,1,0c6,0,10.9-4.9,10.9-10.9C100.5,50.8,96.2,46.2,90.7,45.7z"/>
	<path id="XMLID_6_" class="st0" d="M55.7,74.3c8.2,0,14.8-6.6,14.8-14.8H40.9C40.9,67.7,47.5,74.3,55.7,74.3z"/>
	<g id="XMLID_3_">
		<path id="XMLID_5_" class="st0" d="M49.1,23.2l-4.2,1.3c0.8-0.6,1.6-1.3,2-2c1-1.6,0-4.6,0-4.6s-2.6,0.3-4.5,2.5
			c-1.3,1.5-0.8,3.8-0.3,5l-3.2,1c0.6-0.5,1.1-1,1.4-1.5c1-1.6,0-4.6,0-4.6s-2.6,0.3-4.5,2.5c-1.2,1.4-0.8,3.5-0.4,4.7l-3.2,1
			c0.6-0.5,1.2-1.1,1.5-1.6c1-1.6,0-4.6,0-4.6s-2.6,0.3-4.5,2.5c-1.2,1.4-0.8,3.5-0.4,4.8l-2.3,0.7c0.2-0.2,0.4-0.5,0.6-0.7
			c1-1.6,0-4.6,0-4.6s-2.6,0.3-4.5,2.5c-1.1,1.2-0.9,3-0.6,4.2l-2.7,0.8c0.5-0.4,0.9-0.9,1.1-1.3c1-1.6,0-4.6,0-4.6
			s-2.6,0.3-4.5,2.5c-1.2,1.4-0.9,3.3-0.5,4.6L15,33.7c-0.4,0.1-0.7,0.6-0.5,1c0.1,0.4,0.4,0.6,0.8,0.6c0.1,0,0.2,0,0.2,0l0.2-0.1
			c-0.4,1.2-0.7,3.2,0.5,4.5c1.8,2.1,4.5,2.5,4.5,2.5s1-3,0-4.6c-0.6-1-2.2-2.2-3.3-2.9l5.1-1.6c-0.4,1.2-1,3.4,0.3,4.9
			c1.8,2.1,4.5,2.5,4.5,2.5s1-3,0-4.6c-0.7-1.2-2.6-2.5-3.7-3.2l5.3-1.6c-0.3,1.2-0.5,3,0.5,4.3c1.8,2.1,4.5,2.5,4.5,2.5s1-3,0-4.6
			c-0.6-1-2-2-3.1-2.7l4.6-1.4c-0.4,1.2-0.6,3,0.5,4.3c1.8,2.1,4.5,2.5,4.5,2.5s1-3,0-4.6c-0.6-1-2-2.1-3.1-2.8l4.6-1.4
			c-0.3,1.2-0.4,2.8,0.6,4c1.8,2.1,4.5,2.5,4.5,2.5s1-3,0-4.6c-0.5-0.9-1.8-1.9-2.9-2.6l5.6-1.7c0.4-0.1,0.7-0.6,0.5-1
			C50,23.3,49.5,23,49.1,23.2z"/>
		<path id="XMLID_4_" class="st0" d="M96.8,33.7L96,33.4c0.4-1.2,0.7-3.2-0.5-4.6c-1.8-2.1-4.5-2.5-4.5-2.5s-1,3,0,4.6
			c0.2,0.4,0.7,0.8,1.1,1.3l-2.7-0.8c0.3-1.2,0.5-3-0.6-4.2c-1.8-2.1-4.5-2.5-4.5-2.5s-1,3,0,4.6c0.1,0.2,0.3,0.5,0.6,0.7l-2.3-0.7
			c0.4-1.2,0.9-3.3-0.4-4.8c-1.8-2.1-4.5-2.5-4.5-2.5s-1,3,0,4.6c0.3,0.5,0.9,1.1,1.5,1.6l-3.2-1c0.4-1.2,0.8-3.3-0.4-4.7
			c-1.8-2.1-4.5-2.5-4.5-2.5s-1,3,0,4.6c0.3,0.5,0.8,1,1.4,1.5l-3.2-1c0.4-1.2,1-3.4-0.3-5c-1.8-2.1-4.5-2.5-4.5-2.5s-1,3,0,4.6
			c0.4,0.7,1.2,1.4,2,2l-4.2-1.3c-0.4-0.1-0.9,0.1-1,0.5c-0.1,0.4,0.1,0.9,0.5,1l5.6,1.7c-1,0.7-2.3,1.7-2.9,2.6c-1,1.6,0,4.6,0,4.6
			s2.6-0.3,4.5-2.5c1-1.2,0.9-2.8,0.6-4l4.6,1.4c-1.1,0.7-2.6,1.8-3.1,2.8c-1,1.6,0,4.6,0,4.6s2.6-0.3,4.5-2.5
			c1.1-1.3,0.9-3.1,0.5-4.3l4.6,1.4c-1.1,0.7-2.5,1.8-3.1,2.7c-1,1.6,0,4.6,0,4.6s2.6-0.3,4.5-2.5c1.1-1.3,0.9-3,0.5-4.3l5.3,1.6
			c-1.1,0.7-3,2-3.7,3.2c-1,1.6,0,4.6,0,4.6s2.6-0.3,4.5-2.5c1.3-1.5,0.8-3.8,0.3-4.9l5.1,1.6c-1.1,0.7-2.7,1.9-3.3,2.9
			c-1,1.6,0,4.6,0,4.6s2.6-0.3,4.5-2.5c1.2-1.4,0.9-3.3,0.5-4.5l0.2,0.1c0.1,0,0.2,0,0.2,0c0.4,0,0.7-0.2,0.8-0.6
			C97.4,34.2,97.2,33.8,96.8,33.7z"/>
	</g>
</g>
</svg>
