<?xml version="1.0" encoding="utf-8"?>
<!-- Generator: Adobe Illustrator 19.0.0, SVG Export Plug-In . SVG Version: 6.00 Build 0)  -->
<svg version="1.1" id="Capa_1" xmlns="http://www.w3.org/2000/svg" xmlns:xlink="http://www.w3.org/1999/xlink" x="0px" y="0px"
	 viewBox="0 0 93.5 93" style="enable-background:new 0 0 93.5 93;" xml:space="preserve">
<style type="text/css">
	.st0{fill:#303041;}
</style>
<g id="XMLID_54_">
	<path id="XMLID_82_" class="st0" d="M75,25.1c-0.9,0-1.6-0.7-1.6-1.6c0-3.3-4.3-6.1-9.4-6.1c-5.1,0-9.4,2.8-9.4,6.1
		c0,0.9-0.7,1.6-1.6,1.6c-0.9,0-1.6-0.7-1.6-1.6c0-5.1,5.6-9.3,12.5-9.3c6.9,0,12.5,4.1,12.5,9.3C76.6,24.4,75.9,25.1,75,25.1z"/>
	<path id="XMLID_81_" class="st0" d="M40.5,25.1c-0.9,0-1.6-0.7-1.6-1.6c0-3.3-4.3-6.1-9.4-6.1c-5.1,0-9.4,2.8-9.4,6.1
		c0,0.9-0.7,1.6-1.6,1.6c-0.9,0-1.6-0.7-1.6-1.6c0-5.1,5.6-9.3,12.5-9.3c6.9,0,12.5,4.1,12.5,9.3C42.1,24.4,41.4,25.1,40.5,25.1z"/>
	<path id="XMLID_78_" class="st0" d="M70.2,88.3c-10.5,0-19.1-8.6-19.1-19.1s8.6-19.1,19.1-19.1c10.5,0,19.1,8.6,19.1,19.1
		S80.7,88.3,70.2,88.3z M70.2,54.2c-8.3,0-15,6.7-15,15c0,8.3,6.7,15,15,15c8.3,0,15-6.7,15-15C85.1,60.9,78.4,54.2,70.2,54.2z"/>
	<path id="XMLID_77_" class="st0" d="M89.3,69.3L89.3,69.3C89.3,69.2,89.3,69.3,89.3,69.3C89.3,69.3,89.3,69.3,89.3,69.3z"/>
	<path id="XMLID_76_" class="st0" d="M70.2,23.5c-10.5,0-19.1,6.6-19.1,14.7v30.9c0-4.5,1.6-8.6,4.1-11.9V38.3
		c0-5.8,6.7-10.6,15-10.6c8.3,0,15,4.7,15,10.6v19.1c2.6,3.3,4.1,7.4,4.1,11.9V38.3C89.3,30.1,80.7,23.5,70.2,23.5z"/>
	<path id="XMLID_75_" class="st0" d="M54.7,29.7V16.3c0-3.3,4.3-6.1,9.4-6.1c5.1,0,9.4,2.8,9.4,6.1v7.5c1.1,0.1,2.1,0.4,3.1,0.6
		v-8.1C76.6,11.2,71,7,64.1,7c-6.9,0-12.5,4.2-12.5,9.3v16.4c0,0.4,0.2,0.8,0.4,1.1C52.6,32.2,53.5,30.9,54.7,29.7z"/>
	<path id="XMLID_74_" class="st0" d="M51.1,69.4c0-0.1,0-0.1,0-0.2L51.1,69.4C51.1,69.3,51.1,69.3,51.1,69.4z"/>
	<path id="XMLID_71_" class="st0" d="M70.2,80.7c-6.3,0-11.5-5.2-11.5-11.5s5.2-11.5,11.5-11.5c6.3,0,11.5,5.2,11.5,11.5
		S76.5,80.7,70.2,80.7z M70.2,60.8c-4.6,0-8.4,3.8-8.4,8.4c0,4.6,3.8,8.4,8.4,8.4c4.6,0,8.4-3.8,8.4-8.4
		C78.6,64.6,74.8,60.8,70.2,60.8z"/>
	<path id="XMLID_68_" class="st0" d="M23.5,88.3c-10.5,0-19.1-8.6-19.1-19.1s8.6-19.1,19.1-19.1c10.5,0,19.1,8.6,19.1,19.1
		S34,88.3,23.5,88.3z M23.5,54.2c-8.2,0-15,6.7-15,15c0,8.3,6.7,15,15,15c8.3,0,15-6.7,15-15C38.5,60.9,31.7,54.2,23.5,54.2z"/>
	<path id="XMLID_67_" class="st0" d="M42.6,69.3L42.6,69.3C42.6,69.2,42.6,69.3,42.6,69.3C42.6,69.3,42.6,69.3,42.6,69.3z"/>
	<path id="XMLID_66_" class="st0" d="M4.4,69.4c0-0.1,0-0.1,0-0.2L4.4,69.4C4.4,69.3,4.4,69.3,4.4,69.4z"/>
	<path id="XMLID_65_" class="st0" d="M23.5,23.5c-10.5,0-19.1,6.6-19.1,14.7v30.9c0-4.5,1.6-8.6,4.1-11.9V38.3
		c0-5.8,6.7-10.6,15-10.6c8.3,0,15,4.7,15,10.6v19.1c2.6,3.3,4.1,7.4,4.1,11.9V38.3C42.6,30.1,34,23.5,23.5,23.5z"/>
	<path id="XMLID_64_" class="st0" d="M20.2,23.8v-7.5c0-3.3,4.3-6.1,9.4-6.1c5.1,0,9.4,2.8,9.4,6.1v13.4c1.2,1.2,2.1,2.6,2.7,4.1
		c0.3-0.3,0.4-0.7,0.4-1.1V16.3c0-5.1-5.6-9.3-12.5-9.3c-6.9,0-12.5,4.2-12.5,9.3v8.1C18.1,24.1,19.1,23.9,20.2,23.8z"/>
	<path id="XMLID_61_" class="st0" d="M46.8,68.4c-4.3,0-7.9-3.5-7.9-7.9c0-4.3,3.5-7.9,7.9-7.9c4.3,0,7.9,3.5,7.9,7.9
		C54.7,64.9,51.2,68.4,46.8,68.4z M46.8,55.8c-2.6,0-4.8,2.1-4.8,4.8c0,2.6,2.1,4.8,4.8,4.8c2.6,0,4.8-2.1,4.8-4.8
		C51.6,57.9,49.5,55.8,46.8,55.8z"/>
	<path id="XMLID_60_" class="st0" d="M46.8,31.1c-4.3,0-7.9,2.8-7.9,6.3v23c0,0,0,0,0,0c0-2.5,1.2-4.8,3.1-6.2V37.4
		c0-1.8,2.2-3.2,4.8-3.2c2.6,0,4.8,1.5,4.8,3.2v16.8c1.9,1.4,3.1,3.7,3.1,6.2c0,0,0,0,0,0v-23C54.7,33.9,51.2,31.1,46.8,31.1z"/>
	<path id="XMLID_59_" class="st0" d="M75.1,67.3c0,1.1-0.9,2-2,2c-1.1,0-2-0.9-2-2c0-1.1,0.9-2,2-2C74.2,65.3,75.1,66.2,75.1,67.3z"
		/>
	<path id="XMLID_56_" class="st0" d="M23.5,80.7c-6.3,0-11.5-5.2-11.5-11.5s5.2-11.5,11.5-11.5c6.3,0,11.5,5.2,11.5,11.5
		S29.8,80.7,23.5,80.7z M23.5,60.8c-4.6,0-8.4,3.8-8.4,8.4c0,4.6,3.8,8.4,8.4,8.4s8.4-3.8,8.4-8.4C31.9,64.6,28.1,60.8,23.5,60.8z"
		/>
	<path id="XMLID_55_" class="st0" d="M28.4,67.3c0,1.1-0.9,2-2,2c-1.1,0-2-0.9-2-2c0-1.1,0.9-2,2-2C27.5,65.3,28.4,66.2,28.4,67.3z"
		/>
</g>
</svg>
